<?xml version="1.0" standalone="no"?>
<!DOCTYPE svg PUBLIC "-//W3C//DTD SVG 20010904//EN"
 "http://www.w3.org/TR/2001/REC-SVG-20010904/DTD/svg10.dtd">
<svg version="1.0" xmlns="http://www.w3.org/2000/svg"
 width="608.000000pt" height="594.000000pt" viewBox="0 0 608.000000 594.000000"
 preserveAspectRatio="xMidYMid meet">

<g transform="translate(0.000000,594.000000) scale(0.100000,-0.100000)"
fill="#000000" stroke="none">
<path d="M380 5770 l0 -170 -190 0 -190 0 0 -60 0 -60 250 0 250 0 0 230 0
230 -60 0 -60 0 0 -170z"/>
<path d="M560 5710 l0 -230 795 0 795 0 0 230 0 230 -60 0 -60 0 0 -170 0
-170 -675 0 -675 0 0 170 0 170 -60 0 -60 0 0 -230z"/>
<path d="M2210 5710 l0 -230 790 0 790 0 0 230 0 230 -60 0 -60 0 0 -170 0
-170 -670 0 -670 0 0 170 0 170 -60 0 -60 0 0 -230z"/>
<path d="M3850 5710 l0 -230 795 0 795 0 0 230 0 230 -60 0 -60 0 0 -170 0
-170 -675 0 -675 0 0 170 0 170 -60 0 -60 0 0 -230z"/>
<path d="M5500 5710 l0 -230 290 0 290 0 0 60 0 60 -230 0 -230 0 0 170 0 170
-60 0 -60 0 0 -230z"/>
<path d="M0 5360 l0 -60 190 0 190 0 0 -675 0 -675 -190 0 -190 0 0 -60 0 -60
250 0 250 0 0 795 0 795 -250 0 -250 0 0 -60z"/>
<path d="M560 4625 l0 -795 795 0 795 0 0 795 0 795 -795 0 -795 0 0 -795z
m1470 0 l0 -675 -675 0 -675 0 0 675 0 675 675 0 675 0 0 -675z"/>
<path d="M1280 5170 l0 -40 80 0 80 0 0 -85 0 -85 -40 0 -40 0 0 -125 0 -125
-39 0 -39 0 -7 -85 -7 -85 -38 0 -38 0 -7 -85 -7 -85 -39 0 -39 0 0 46 0 45
-82 -3 -83 -3 -3 43 -3 42 -80 0 -79 0 0 -125 0 -125 40 0 40 0 0 -44 0 -45
43 -3 c41 -3 42 -4 45 -40 l3 -38 80 0 79 0 0 -40 0 -40 40 0 40 0 0 58 c0 31
3 87 7 125 l6 67 38 0 c39 0 39 0 39 40 l0 40 85 0 85 0 0 -125 0 -125 -40 0
-40 0 0 -40 0 -40 58 0 c31 0 87 -3 125 -7 l67 -6 0 47 0 46 125 0 125 0 0 40
0 40 45 0 45 0 -2 298 -3 297 -42 3 -43 3 0 80 0 79 -39 0 c-40 0 -40 0 -43
43 -3 42 -3 42 -45 45 -43 3 -43 3 -43 43 l0 39 -85 0 -85 0 0 40 0 40 -120 0
-120 0 0 -40z m498 -417 l3 -43 -40 0 -41 0 0 -45 0 -45 -45 0 -45 0 0 45 0
45 -40 0 c-40 0 -40 0 -40 39 0 40 0 40 43 44 23 2 78 3 122 3 l80 -1 3 -42z"/>
<path d="M1190 5090 l0 -40 40 0 40 0 0 40 0 40 -40 0 -40 0 0 -40z"/>
<path d="M2210 4625 l0 -795 790 0 790 0 0 795 0 795 -790 0 -790 0 0 -795z
m1460 0 l0 -675 -670 0 -670 0 0 675 0 675 670 0 670 0 0 -675z"/>
<path d="M2920 5130 c0 -39 -1 -40 -35 -40 -34 0 -35 -1 -35 -40 l0 -40 -40 0
-40 0 0 40 0 40 -75 0 -75 0 0 -40 0 -40 -40 0 -40 0 0 -75 0 -75 40 0 40 0 0
-40 0 -40 -40 0 c-39 0 -40 -1 -40 -35 l0 -34 78 -3 77 -3 3 -77 3 -78 -81 0
-80 0 0 74 0 74 -31 6 c-17 3 -35 6 -40 6 -5 0 -9 -36 -9 -80 l0 -80 40 0 40
0 0 -41 0 -41 40 7 40 7 0 -41 0 -41 -40 0 -40 0 0 -75 0 -75 40 0 40 0 0 -40
0 -40 75 0 75 0 0 40 0 40 40 0 40 0 0 -40 c0 -39 1 -40 35 -40 l35 0 0 75 0
75 80 0 80 0 0 -75 0 -75 -74 0 -73 0 -7 -31 c-3 -17 -6 -35 -6 -40 0 -5 36
-9 80 -9 l80 0 0 40 0 40 40 0 40 0 0 40 c0 39 1 40 35 40 34 0 35 -1 35 -40
l0 -40 75 0 75 0 0 40 0 40 40 0 40 0 0 75 0 75 -41 0 -40 0 3 38 c3 35 5 37
41 40 35 3 37 5 37 38 0 33 1 34 40 34 l40 0 0 81 0 82 -31 -7 c-17 -3 -35 -6
-40 -6 -5 0 -9 -34 -9 -75 l0 -75 -75 0 -75 0 0 80 0 80 75 0 75 0 0 35 c0 34
-1 35 -40 35 l-40 0 0 40 0 40 40 0 40 0 0 75 0 75 -40 0 -40 0 0 40 0 40 -75
0 -75 0 0 -40 c0 -39 -1 -40 -34 -40 -32 0 -35 2 -41 40 -6 38 -9 40 -41 40
-33 0 -34 1 -34 40 l0 40 -80 0 -80 0 0 -40z m160 -120 l0 -81 -77 3 -78 3 -3
78 -3 77 81 0 80 0 0 -80z m-310 -35 c0 -34 1 -35 40 -35 l40 0 0 -40 0 -40
-40 0 -40 0 0 -40 0 -40 -40 0 -40 0 0 40 c0 39 -1 40 -35 40 l-35 0 0 75 0
75 75 0 75 0 0 -35z m610 -40 l0 -75 -35 0 c-34 0 -35 -1 -35 -40 l0 -40 -40
0 -40 0 0 40 0 40 -41 0 -40 0 3 38 c3 35 5 37 41 40 35 3 37 5 37 38 l0 34
75 0 75 0 0 -75z m-610 -495 l0 -40 40 0 40 0 0 -40 0 -40 -40 0 c-39 0 -40
-1 -40 -35 l0 -35 -75 0 -75 0 0 75 0 75 35 0 c33 0 35 2 35 33 0 19 3 37 7
40 3 4 21 7 40 7 32 0 33 -1 33 -40z m540 0 c0 -39 1 -40 35 -40 l35 0 0 -75
0 -75 -75 0 -75 0 0 35 c0 34 -1 35 -40 35 l-40 0 0 40 0 40 40 0 40 0 0 40 0
40 40 0 40 0 0 -40z"/>
<path d="M3850 4625 l0 -795 795 0 795 0 0 795 0 795 -795 0 -795 0 0 -795z
m1470 0 l0 -675 -675 0 -675 0 0 675 0 675 675 0 675 0 0 -675z"/>
<path d="M5500 4625 l0 -795 290 0 290 0 0 60 0 60 -230 0 -230 0 0 675 0 675
230 0 230 0 0 60 0 60 -290 0 -290 0 0 -795z"/>
<path d="M0 3710 l0 -60 190 0 190 0 0 -675 0 -675 -190 0 -190 0 0 -60 0 -60
250 0 250 0 0 795 0 795 -250 0 -250 0 0 -60z"/>
<path d="M560 2975 l0 -795 795 0 795 0 0 795 0 795 -795 0 -795 0 0 -795z
m580 636 c0 -39 -1 -40 -42 -46 -24 -3 -61 -4 -83 -3 l-40 3 -3 -42 c-3 -43
-3 -43 -43 -43 l-39 0 0 -170 0 -170 40 0 40 0 0 -85 0 -85 -40 0 -40 0 0 -40
0 -40 85 0 85 0 0 -40 0 -40 -85 0 -85 0 0 40 0 40 -45 0 -45 0 0 -170 0 -170
45 0 45 0 0 45 0 45 40 0 40 0 0 -45 0 -45 -40 0 -40 0 0 -46 0 -45 43 3 c42
3 42 3 45 46 3 42 3 42 43 42 l39 0 0 -85 0 -85 40 0 40 0 0 -40 0 -40 -230 0
-230 0 0 675 0 675 230 0 230 0 0 -39z m890 -636 l0 -675 -190 0 -190 0 0 40
0 40 -40 0 -40 0 0 40 0 40 40 0 40 0 0 45 0 45 39 0 c40 0 40 0 43 -42 3 -43
3 -43 46 -46 l42 -3 0 45 0 46 -40 0 -40 0 0 45 0 45 40 0 40 0 0 -45 0 -45
45 0 45 0 0 170 0 170 -45 0 -45 0 0 -40 0 -40 -85 0 -85 0 0 40 0 40 85 0 85
0 0 40 0 40 -40 0 -40 0 0 85 0 85 40 0 40 0 0 170 0 170 -40 0 c-40 0 -40 0
-40 39 0 35 -3 39 -31 45 -17 3 -56 6 -85 6 l-54 0 0 40 0 40 230 0 230 0 0
-675z m-550 80 l0 -85 45 0 45 0 0 45 0 45 40 0 40 0 0 -45 0 -45 -40 0 -40 0
0 -40 0 -40 -215 0 -215 0 0 40 0 40 -40 0 -40 0 0 45 0 45 40 0 40 0 0 -45 0
-45 45 0 45 0 0 85 0 85 125 0 125 0 0 -85z m-80 -380 l0 -125 -45 0 -45 0 0
125 0 125 45 0 45 0 0 -125z"/>
<path d="M2210 2975 l0 -795 790 0 790 0 0 795 0 795 -790 0 -790 0 0 -795z
m1460 0 l0 -675 -670 0 -670 0 0 675 0 675 670 0 670 0 0 -675z"/>
<path d="M2920 3525 l0 -45 -45 0 -45 0 0 -40 0 -40 45 0 45 0 0 40 0 40 80 0
80 0 0 -85 0 -85 -40 0 -40 0 0 -125 0 -125 -40 0 -40 0 0 -80 0 -80 -45 0
-45 0 0 -85 0 -85 -40 0 -40 0 0 40 0 40 -85 0 -85 0 0 45 0 45 -85 0 -85 0 0
-125 0 -125 45 0 45 0 0 -45 0 -45 40 0 40 0 0 -40 0 -40 85 0 85 0 0 -45 0
-45 40 0 40 0 0 125 0 125 45 0 45 0 0 45 0 45 80 0 80 0 0 -125 0 -125 -40 0
-40 0 0 -45 0 -45 125 0 125 0 0 45 0 45 125 0 125 0 0 40 0 40 45 0 45 0 0
295 0 295 -45 0 -45 0 0 80 0 80 -40 0 -40 0 0 45 0 45 -45 0 -45 0 0 40 0 40
-80 0 -80 0 0 45 0 45 -125 0 -125 0 0 -45z m500 -420 l0 -45 -40 0 -40 0 0
-40 0 -40 -45 0 -45 0 0 40 0 40 -40 0 -40 0 0 45 0 45 125 0 125 0 0 -45z"/>
<path d="M3850 2975 l0 -795 795 0 795 0 0 795 0 795 -795 0 -795 0 0 -795z
m580 636 c0 -39 -1 -40 -42 -46 -24 -3 -61 -4 -83 -3 l-40 3 -3 -42 -3 -43 85
0 86 0 0 40 0 40 215 0 215 0 0 -40 0 -40 85 0 85 0 0 39 c0 35 -3 39 -31 45
-17 3 -56 6 -85 6 l-54 0 0 40 0 40 230 0 230 0 0 -675 0 -675 -190 0 -190 0
0 40 0 40 -40 0 -40 0 0 40 0 40 40 0 40 0 0 45 0 45 39 0 c40 0 40 0 43 -42
3 -43 3 -43 46 -46 l42 -3 0 45 0 46 -40 0 -40 0 0 45 0 45 40 0 40 0 0 -45 0
-45 45 0 45 0 0 170 0 170 -45 0 -45 0 0 -40 0 -40 -85 0 -85 0 0 40 0 40 85
0 85 0 0 40 0 40 -40 0 -40 0 0 85 0 85 -130 0 -130 0 0 -85 0 -85 45 0 45 0
0 45 0 45 40 0 40 0 0 -45 0 -45 -40 0 -40 0 0 -40 0 -40 -215 0 -215 0 0 40
0 40 -40 0 -40 0 0 45 0 45 40 0 40 0 0 -45 0 -45 45 0 45 0 0 85 0 85 -130 0
-130 0 0 -85 0 -85 -40 0 -40 0 0 -40 0 -40 85 0 85 0 0 -40 0 -40 -85 0 -85
0 0 40 0 40 -45 0 -45 0 0 -170 0 -170 45 0 45 0 0 45 0 45 40 0 40 0 0 -45 0
-45 -40 0 -40 0 0 -46 0 -45 43 3 c42 3 42 3 45 46 3 42 3 42 43 42 l39 0 0
-85 0 -85 40 0 40 0 0 -40 0 -40 -230 0 -230 0 0 675 0 675 230 0 230 0 0 -39z
m260 -936 l0 -125 -45 0 -45 0 0 125 0 125 45 0 45 0 0 -125z"/>
<path d="M4180 3310 l0 -170 40 0 40 0 0 85 0 85 45 0 45 0 0 -45 0 -45 85 0
85 0 0 -40 0 -40 125 0 125 0 0 40 0 40 85 0 85 0 0 45 0 45 45 0 45 0 0 -85
0 -85 40 0 40 0 0 170 0 170 -40 0 -40 0 0 -40 0 -40 -45 0 -45 0 0 -45 0 -45
-85 0 -85 0 0 -40 0 -40 -125 0 -125 0 0 40 0 39 -82 3 -83 3 -3 43 -3 42 -45
0 -44 0 0 40 0 40 -40 0 -40 0 0 -170z"/>
<path d="M5500 2975 l0 -795 290 0 290 0 0 60 0 60 -230 0 -230 0 0 675 0 675
230 0 230 0 0 60 0 60 -290 0 -290 0 0 -795z"/>
<path d="M0 2060 l0 -60 190 0 190 0 0 -670 0 -670 -190 0 -190 0 0 -60 0 -60
250 0 250 0 0 790 0 790 -250 0 -250 0 0 -60z"/>
<path d="M560 1330 l0 -790 795 0 795 0 0 790 0 790 -795 0 -795 0 0 -790z
m1470 0 l0 -670 -675 0 -675 0 0 670 0 670 675 0 675 0 0 -670z"/>
<path d="M2210 1330 l0 -790 790 0 790 0 0 790 0 790 -790 0 -790 0 0 -790z
m1460 0 l0 -670 -670 0 -670 0 0 670 0 670 670 0 670 0 0 -670z"/>
<path d="M2920 1830 c0 -39 -1 -40 -35 -40 -34 0 -35 -1 -35 -40 l0 -40 -40 0
-40 0 0 40 0 40 -75 0 -75 0 0 -40 0 -40 -40 0 -40 0 0 -75 0 -75 40 0 40 0 0
-40 0 -40 -40 0 c-39 0 -40 -1 -40 -35 l0 -34 78 -3 77 -3 3 -77 3 -78 -81 0
-80 0 0 74 0 74 -31 6 c-17 3 -35 6 -40 6 -5 0 -9 -36 -9 -80 l0 -80 40 0 40
0 0 -41 0 -41 40 7 40 7 0 -41 0 -41 -40 0 -40 0 0 -75 0 -75 40 0 40 0 0 -40
0 -40 75 0 75 0 0 40 0 40 40 0 40 0 0 -40 c0 -39 1 -40 35 -40 l35 0 0 75 0
75 80 0 80 0 0 -75 0 -75 -74 0 -73 0 -7 -31 c-3 -17 -6 -35 -6 -40 0 -5 36
-9 80 -9 l80 0 0 40 0 40 40 0 40 0 0 40 c0 39 1 40 35 40 34 0 35 -1 35 -40
l0 -40 75 0 75 0 0 40 0 40 40 0 40 0 0 75 0 75 -41 0 -40 0 3 38 c3 35 5 37
41 40 35 3 37 5 37 38 0 33 1 34 40 34 l40 0 0 81 0 82 -31 -7 c-17 -3 -35 -6
-40 -6 -5 0 -9 -34 -9 -75 l0 -75 -75 0 -75 0 0 80 0 80 75 0 75 0 0 35 c0 34
-1 35 -40 35 l-40 0 0 40 0 40 40 0 40 0 0 75 0 75 -40 0 -40 0 0 40 0 40 -75
0 -75 0 0 -40 c0 -39 -1 -40 -34 -40 -32 0 -35 2 -41 40 -6 38 -9 40 -41 40
-33 0 -34 1 -34 40 l0 40 -80 0 -80 0 0 -40z m160 -120 l0 -81 -77 3 -78 3 -3
78 -3 77 81 0 80 0 0 -80z m-310 -35 c0 -34 1 -35 40 -35 l40 0 0 -40 0 -40
-40 0 -40 0 0 -40 0 -40 -40 0 -40 0 0 40 c0 39 -1 40 -35 40 l-35 0 0 75 0
75 75 0 75 0 0 -35z m610 -40 l0 -75 -35 0 c-34 0 -35 -1 -35 -40 l0 -40 -40
0 -40 0 0 40 0 40 -41 0 -40 0 3 38 c3 35 5 37 41 40 35 3 37 5 37 38 l0 34
75 0 75 0 0 -75z m-610 -495 l0 -40 40 0 40 0 0 -40 0 -40 -40 0 c-39 0 -40
-1 -40 -35 l0 -35 -75 0 -75 0 0 75 0 75 35 0 c33 0 35 2 35 33 0 42 5 47 47
47 32 0 33 -1 33 -40z m540 0 c0 -39 1 -40 35 -40 l35 0 0 -75 0 -75 -75 0
-75 0 0 35 c0 34 -1 35 -40 35 l-40 0 0 40 0 40 40 0 40 0 0 40 0 40 40 0 40
0 0 -40z"/>
<path d="M3850 1330 l0 -790 795 0 795 0 0 790 0 790 -795 0 -795 0 0 -790z
m1470 0 l0 -670 -675 0 -675 0 0 670 0 670 675 0 675 0 0 -670z"/>
<path d="M4560 1875 l0 -45 -45 0 -45 0 0 -40 0 -40 45 0 45 0 0 40 0 40 80 0
80 0 0 -85 0 -85 -40 0 -40 0 0 -125 0 -125 -40 0 -40 0 0 -80 0 -80 -45 0
-45 0 0 -85 0 -85 -40 0 -40 0 0 40 0 40 -85 0 -85 0 0 45 0 45 -85 0 -85 0 0
-125 0 -125 45 0 45 0 0 -45 0 -45 40 0 40 0 0 -40 0 -40 85 0 85 0 0 -45 0
-45 40 0 40 0 0 125 0 125 45 0 45 0 0 45 0 45 80 0 80 0 0 -125 0 -125 -40 0
-40 0 0 -45 0 -45 125 0 125 0 0 45 0 45 125 0 125 0 0 40 0 40 45 0 45 0 0
295 0 295 -45 0 -45 0 0 80 0 80 -40 0 -40 0 0 45 0 45 -45 0 -45 0 0 40 0 40
-80 0 -80 0 0 45 0 45 -125 0 -125 0 0 -45z m500 -420 l0 -45 -40 0 -40 0 0
-40 0 -40 -45 0 -45 0 0 40 0 40 -40 0 -40 0 0 45 0 45 125 0 125 0 0 -45z"/>
<path d="M5500 1330 l0 -790 290 0 290 0 0 60 0 60 -230 0 -230 0 0 670 0 670
230 0 230 0 0 60 0 60 -290 0 -290 0 0 -790z"/>
<path d="M0 420 l0 -60 190 0 190 0 0 -180 0 -180 60 0 60 0 0 240 0 240 -250
0 -250 0 0 -60z"/>
<path d="M560 240 l0 -240 60 0 60 0 0 180 0 180 675 0 675 0 0 -180 0 -180
60 0 60 0 0 240 0 240 -795 0 -795 0 0 -240z"/>
<path d="M2210 240 l0 -240 60 0 60 0 0 180 0 180 670 0 670 0 0 -180 0 -180
60 0 60 0 0 240 0 240 -790 0 -790 0 0 -240z"/>
<path d="M3850 240 l0 -240 60 0 60 0 0 180 0 180 675 0 675 0 0 -180 0 -180
60 0 60 0 0 240 0 240 -795 0 -795 0 0 -240z"/>
<path d="M5500 240 l0 -240 60 0 60 0 0 180 0 180 230 0 230 0 0 60 0 60 -290
0 -290 0 0 -240z"/>
</g>
</svg>
